<?xml version="1.0" encoding="iso-8859-1"?>
<!-- Generator: Adobe Illustrator 19.0.0, SVG Export Plug-In . SVG Version: 6.00 Build 0)  -->
<svg version="1.1" id="Layer_1" xmlns="http://www.w3.org/2000/svg" xmlns:xlink="http://www.w3.org/1999/xlink" x="0px" y="0px"
	 viewBox="0 0 392.598 392.598" style="enable-background:new 0 0 392.598 392.598;" xml:space="preserve">
<g>
	<path style="fill:#194F82;" d="M327.305,104.501c-6.012,0-10.925-4.848-10.925-10.925V51.879c0-6.012,4.848-10.925,10.925-10.925
		s10.925,4.848,10.925,10.925v41.697C338.23,99.653,333.317,104.501,327.305,104.501z"/>
	<path style="fill:#194F82;" d="M262.853,104.501c-6.012,0-10.925-4.848-10.925-10.925V51.879c0-6.012,4.848-10.925,10.925-10.925
		c6.012,0,10.925,4.848,10.925,10.925v41.697C273.778,99.653,268.929,104.501,262.853,104.501z"/>
	<path style="fill:#194F82;" d="M135.176,83.62H65.228c-6.012,0-10.925-4.848-10.925-10.925c0-6.012,4.848-10.925,10.925-10.925
		h69.947c6.012,0,10.925,4.848,10.925,10.925C146.036,78.772,141.188,83.62,135.176,83.62z"/>
	<path style="fill:#194F82;" d="M327.305,228.04c-6.012,0-10.925-4.848-10.925-10.925v-41.697c0-6.012,4.848-10.925,10.925-10.925
		s10.925,4.848,10.925,10.925v41.697C338.23,223.192,333.317,228.04,327.305,228.04z"/>
	<path style="fill:#194F82;" d="M262.853,228.04c-6.012,0-10.925-4.848-10.925-10.925v-41.697c0-6.012,4.848-10.925,10.925-10.925
		c6.012,0,10.925,4.848,10.925,10.925v41.697C273.778,223.192,268.929,228.04,262.853,228.04z"/>
	<path style="fill:#194F82;" d="M135.176,207.224H65.228c-6.012,0-10.925-4.848-10.925-10.925s4.848-10.925,10.925-10.925h69.947
		c6.012,0,10.925,4.848,10.925,10.925C146.036,202.311,141.188,207.224,135.176,207.224z"/>
	<path style="fill:#194F82;" d="M327.305,351.644c-6.012,0-10.925-4.849-10.925-10.925v-41.697c0-6.012,4.848-10.925,10.925-10.925
		s10.925,4.848,10.925,10.925v41.697C338.23,346.731,333.317,351.644,327.305,351.644z"/>
	<path style="fill:#194F82;" d="M262.853,351.644c-6.012,0-10.925-4.849-10.925-10.925v-41.697c0-6.012,4.848-10.925,10.925-10.925
		c6.012,0,10.925,4.848,10.925,10.925v41.697C273.778,346.731,268.929,351.644,262.853,351.644z"/>
	<path style="fill:#194F82;" d="M135.176,330.764H65.228c-6.012,0-10.925-4.849-10.925-10.925c0-6.012,4.848-10.925,10.925-10.925
		h69.947c6.012,0,10.925,4.848,10.925,10.925C146.036,325.915,141.188,330.764,135.176,330.764z"/>
</g>
<path style="fill:#56ACE0;" d="M359.822,269.026H32.711c-6.012,0-10.925,4.848-10.925,10.925v79.903
	c0,6.012,4.848,10.925,10.925,10.925h327.111c6.012,0,10.925-4.849,10.925-10.925v-79.968
	C370.747,273.875,365.834,269.026,359.822,269.026z"/>
<path style="fill:#FFC10D;" d="M359.822,145.358H32.711c-6.012,0-10.925,4.848-10.925,10.925v79.968
	c0,6.012,4.848,10.925,10.925,10.925h327.111c6.012,0,10.925-4.848,10.925-10.925v-79.903
	C370.747,150.335,365.834,145.358,359.822,145.358z"/>
<path style="fill:#56ACE0;" d="M32.711,123.572h327.111c6.012,0,10.925-4.848,10.925-10.925V32.743
	c0-6.012-4.848-10.925-10.925-10.925H32.711c-6.012,0-10.925,4.848-10.925,10.925v79.968
	C21.786,118.723,26.699,123.572,32.711,123.572z"/>
<g>
	<path style="fill:#194F82;" d="M359.822,0.032H32.711C14.675,0.032,0,14.707,0,32.743v79.968c0,8.339,3.168,15.968,8.404,21.786
		C3.168,140.315,0,147.943,0,156.347v79.968c0,8.339,3.168,15.968,8.404,21.786C3.168,263.919,0,271.483,0,279.887v79.968
		c0,18.036,14.675,32.711,32.711,32.711h327.111c18.036,0,32.711-14.675,32.711-32.711v-79.968c0-8.339-3.168-15.968-8.404-21.786
		c5.172-5.818,8.404-13.446,8.404-21.786v-79.968c0-8.339-3.168-15.968-8.404-21.786c5.172-5.818,8.404-13.446,8.404-21.786V32.743
		h0.065C392.533,14.707,377.859,0.032,359.822,0.032z M21.786,32.743c0-6.012,4.848-10.925,10.925-10.925h327.111
		c6.012,0,10.925,4.848,10.925,10.925v79.968c0,6.012-4.848,10.925-10.925,10.925H32.711c-6.012,0-10.925-4.848-10.925-10.925
		V32.743z M359.822,370.78H32.711c-6.012,0-10.925-4.849-10.925-10.925v-79.968c0-6.012,4.848-10.925,10.925-10.925h327.111
		c6.012,0,10.925,4.849,10.925,10.925v79.968h0.065C370.747,365.931,365.899,370.78,359.822,370.78z M359.822,247.176H32.711
		c-6.012,0-10.925-4.848-10.925-10.925v-79.903c0-6.012,4.848-10.925,10.925-10.925h327.111c6.012,0,10.925,4.848,10.925,10.925
		v79.903h0.065C370.747,242.263,365.899,247.176,359.822,247.176z"/>
	<path style="fill:#194F82;" d="M327.305,104.501c6.012,0,10.925-4.848,10.925-10.925V51.879c0-6.012-4.848-10.925-10.925-10.925
		c-6.012,0-10.925,4.848-10.925,10.925v41.697C316.444,99.653,321.293,104.501,327.305,104.501z"/>
	<path style="fill:#194F82;" d="M262.853,104.501c6.012,0,10.925-4.848,10.925-10.925V51.879c0-6.012-4.848-10.925-10.925-10.925
		c-6.012,0-10.925,4.848-10.925,10.925v41.697C251.992,99.653,256.84,104.501,262.853,104.501z"/>
	<path style="fill:#194F82;" d="M65.228,83.62h70.012c6.012,0,10.925-4.848,10.925-10.925c0-6.077-4.978-10.925-10.99-10.925H65.228
		c-6.012,0-10.925,4.848-10.925,10.925C54.303,78.772,59.216,83.62,65.228,83.62z"/>
	<path style="fill:#194F82;" d="M327.305,164.558c-6.012,0-10.925,4.848-10.925,10.925v41.697c0,6.012,4.848,10.925,10.925,10.925
		c6.012,0,10.925-4.848,10.925-10.925v-41.697C338.23,169.406,333.317,164.558,327.305,164.558z"/>
	<path style="fill:#194F82;" d="M262.853,164.558c-6.012,0-10.925,4.848-10.925,10.925v41.697c0,6.012,4.848,10.925,10.925,10.925
		c6.012,0,10.925-4.848,10.925-10.925v-41.697C273.778,169.406,268.929,164.558,262.853,164.558z"/>
	<path style="fill:#194F82;" d="M135.24,185.374H65.228c-6.012,0-10.925,4.848-10.925,10.925s4.848,10.925,10.925,10.925h70.012
		c6.012,0,10.925-4.848,10.925-10.925C146.101,190.287,141.253,185.374,135.24,185.374z"/>
	<path style="fill:#194F82;" d="M327.305,288.097c-6.012,0-10.925,4.848-10.925,10.925v41.697c0,6.012,4.848,10.925,10.925,10.925
		c6.012,0,10.925-4.848,10.925-10.925v-41.697C338.23,292.945,333.317,288.097,327.305,288.097z"/>
	<path style="fill:#194F82;" d="M262.853,288.097c-6.012,0-10.925,4.848-10.925,10.925v41.697c0,6.012,4.848,10.925,10.925,10.925
		c6.012,0,10.925-4.848,10.925-10.925v-41.697C273.778,292.945,268.929,288.097,262.853,288.097z"/>
	<path style="fill:#194F82;" d="M135.176,308.978H65.228c-6.012,0-10.925,4.848-10.925,10.925s4.913,10.861,10.925,10.861h70.012
		c6.012,0,10.925-4.849,10.925-10.925C146.036,313.826,141.188,308.978,135.176,308.978z"/>
</g>
<g>
</g>
<g>
</g>
<g>
</g>
<g>
</g>
<g>
</g>
<g>
</g>
<g>
</g>
<g>
</g>
<g>
</g>
<g>
</g>
<g>
</g>
<g>
</g>
<g>
</g>
<g>
</g>
<g>
</g>
</svg>
